<svg xmlns="http://www.w3.org/2000/svg" version="1.0" width="31.88" height="32" viewBox="0 0 512.000000 512.000000" preserveAspectRatio="xMidYMid meet">

<g transform="translate(0.000000,512.000000) scale(0.100000,-0.100000)" fill="#fff" stroke="none">
<path d="M2477 5114 c-11 -11 -8 -311 3 -383 14 -83 47 -147 105 -200 90 -83 102 -85 426 -91 284 -5 286 -5 322 -30 102 -70 104 -210 4 -284 -28 -21 -37 -21 -780 -26 l-752 -5 -60 -28 c-72 -34 -137 -94 -173 -162 -24 -45 -27 -61 -27 -150 0 -89 3 -105 27 -150 49 -93 126 -154 223 -180 46 -11 116 -15 311 -15 245 0 252 -1 285 -23 18 -12 44 -38 56 -56 21 -30 23 -46 23 -147 l0 -114 -85 0 -85 0 0 -169 0 -170 -562 -4 c-608 -4 -600 -4 -776 -63 -101 -33 -263 -118 -365 -191 -104 -74 -266 -236 -340 -340 -111 -156 -193 -337 -234 -515 -24 -107 -24 -393 0 -508 61 -285 180 -506 381 -706 200 -199 421 -320 686 -374 345 -70 672 -12 1000 179 163 95 293 131 471 131 180 0 305 -36 492 -144 315 -180 639 -235 976 -166 266 54 487 174 687 374 199 198 316 413 376 689 29 132 31 409 5 525 -41 178 -123 359 -234 515 -74 104 -236 266 -340 340 -151 107 -326 189 -493 230 -80 19 -121 20 -647 24 l-563 4 0 170 0 169 -85 0 -85 0 0 78 c0 101 -16 194 -41 246 -29 57 -94 123 -154 154 l-50 27 -285 5 c-299 5 -306 6 -358 54 -36 32 -52 70 -52 121 0 50 10 77 44 113 53 59 13 57 836 62 l755 5 51 27 c67 36 138 115 164 186 31 81 25 195 -14 271 -37 72 -104 135 -174 162 -53 21 -77 23 -339 29 -264 5 -283 6 -309 26 -67 49 -69 57 -74 277 l-5 202 -80 3 c-45 1 -84 0 -88 -4z m171 -2296 l-3 -83 -85 0 -85 0 -3 83 -3 82 91 0 91 0 -3 -82z m1377 -291 c207 -57 404 -177 572 -350 223 -230 336 -476 349 -762 28 -581 -376 -1097 -956 -1221 -61 -13 -128 -18 -235 -18 -259 0 -396 42 -700 214 -153 87 -330 125 -542 117 -204 -7 -317 -41 -513 -152 -200 -113 -329 -157 -524 -177 -201 -21 -428 19 -614 107 -346 164 -587 469 -668 845 -14 64 -18 125 -18 245 1 139 5 173 28 260 117 447 557 848 1002 914 32 5 658 8 1389 7 l1330 -1 100 -28z"/>
<path d="M3669 2207 c-182 -52 -290 -231 -244 -409 25 -100 86 -176 180 -226 45 -24 61 -27 150 -27 89 0 105 3 150 27 67 36 128 101 161 171 73 162 -4 367 -168 442 -68 31 -164 40 -229 22z m157 -176 c59 -27 87 -72 92 -146 3 -50 0 -66 -20 -95 -36 -53 -83 -80 -140 -80 -184 0 -240 246 -74 321 52 23 90 23 142 0z"/>
<path d="M1139 2021 l-29 -29 0 -186 0 -186 -184 0 c-181 0 -185 -1 -213 -24 l-28 -24 0 -207 0 -207 28 -24 c28 -23 32 -24 213 -24 l184 0 0 -184 c0 -181 1 -185 24 -213 l24 -28 207 0 207 0 24 28 c23 28 24 32 24 213 l0 184 186 0 186 0 29 29 29 29 0 197 0 197 -29 29 -29 29 -186 0 -186 0 0 186 0 186 -29 29 -29 29 -197 0 -197 0 -29 -29z m311 -327 l0 -186 29 -29 29 -29 186 0 186 0 0 -85 0 -85 -186 0 -186 0 -29 -29 -29 -29 0 -186 0 -186 -85 0 -85 0 0 186 0 186 -29 29 -29 29 -186 0 -186 0 0 85 0 85 186 0 186 0 29 29 29 29 0 186 0 186 85 0 85 0 0 -186z"/>
<path d="M3070 1694 c-93 -25 -170 -89 -218 -179 -24 -45 -27 -61 -27 -150 0 -89 3 -105 27 -150 61 -115 177 -187 301 -187 140 0 249 67 309 190 29 59 33 76 33 147 -1 65 -6 91 -27 136 -72 155 -240 237 -398 193z m132 -164 c81 -23 138 -109 124 -187 -10 -53 -48 -107 -89 -126 -115 -55 -247 23 -247 145 0 78 49 146 120 166 47 13 49 14 92 2z"/>
<path d="M4282 1700 c-102 -22 -193 -96 -241 -199 -21 -46 -26 -70 -26 -136 0 -71 4 -89 33 -147 60 -123 169 -190 308 -190 233 -1 394 236 313 459 -28 77 -122 172 -194 196 -63 22 -138 28 -193 17z m111 -171 c83 -23 134 -99 124 -186 -9 -86 -76 -143 -167 -143 -72 0 -128 37 -154 99 -21 53 -20 86 3 136 22 49 48 73 98 91 47 16 49 16 96 3z"/>
<path d="M3635 1173 c-109 -45 -182 -129 -211 -243 -40 -156 41 -317 195 -388 46 -22 70 -26 137 -26 72 0 90 4 147 32 252 124 254 480 4 609 -67 34 -208 43 -272 16z m206 -176 c75 -50 101 -143 62 -224 -46 -98 -187 -118 -268 -38 -107 108 -32 285 121 285 37 0 61 -6 85 -23z"/>
</g>
</svg>